<?xml version="1.0" encoding="utf-8"?>
<!-- Generator: Adobe Illustrator 23.0.2, SVG Export Plug-In . SVG Version: 6.00 Build 0)  -->
<svg version="1.1" id="Layer_1" xmlns="http://www.w3.org/2000/svg" xmlns:xlink="http://www.w3.org/1999/xlink" x="0px" y="0px"
	 viewBox="0 0 317.7 160.4" style="enable-background:new 0 0 317.7 160.4;" xml:space="preserve">
<style type="text/css">
	.st0{fill:#64C6BB;}
	.st1{fill:#96CA4E;}
	.st2{fill:#7B55A3;}
	.st3{fill:#D184B8;}
	.st4{fill:#F48176;}
	.st5{fill:#2B62AD;}
	.st6{fill:#98D6D6;}
	.st7{fill:#F6C648;}
	.st8{fill:#F177AC;}
	.st9{fill:#0088CA;}
	.st10{fill:#F48747;}
	.st11{fill:#FFFFFF;}
	.st12{fill:#EE3B42;}
	.st13{fill:#4FAEE1;}
	.st14{opacity:0.6;}
</style>
<g>
	<g>
		<rect x="115.2" y="78.7" class="st0" width="3" height="81.8"/>
		<path class="st1" d="M114.1,149v11.4h-3V149c0-2.1-0.5-3.7-1.4-4.5c-0.9-0.9-2.1-0.8-2.1-0.8H97.5c-6.2,0-8.2-5.3-8.4-8.1l0-70.1
			v-9h3.7l0,2.5l-0.1,6.5l-0.6,70c0,0.7,0.6,5.3,5.4,5.3h9.9c0.5,0,2.5-0.1,4.3,1.5C113.3,143.7,114.1,146,114.1,149z"/>
		<path class="st2" d="M144.4,45.7v64.2c-0.2,2.9-2.2,8.2-8.4,8.2l-10.1,0c0,0-1.2-0.1-2.1,0.8c-0.9,0.9-1.4,2.4-1.4,4.5v37.1h-3
			v-37.1c0-3,0.8-5.3,2.4-6.7c1.8-1.6,3.8-1.6,4.3-1.5h9.9c5.1,0,5.4-5.1,5.5-5.3l0-46.4V45.7H144.4z"/>
		<rect x="61.5" y="94.4" class="st3" width="3" height="66"/>
		<path class="st4" d="M60.3,139.2v21.3h-3v-21.3c0-2.1-0.5-3.7-1.4-4.5c-0.9-0.9-2.1-0.8-2.1-0.8l-0.1,0h-10
			c-6.2,0-8.2-5.3-8.4-8.1V61.5h3v64.1c0.1,0.7,0.6,5.3,5.4,5.3h9.9c0.5,0,2.5,0,4.3,1.5C59.5,133.9,60.3,136.2,60.3,139.2z"/>
		<rect x="252.1" y="102.3" class="st5" width="2.9" height="58.1"/>
		<path class="st6" d="M250.9,149v11.4h-3V149c0-2.1-0.5-3.7-1.4-4.5c-0.9-0.8-2.1-0.8-2.1-0.8l-0.1,0h-10c-6.2,0-8.2-5.3-8.4-8.1
			v-94h2.9v93.9c0.1,0.7,0.6,5.3,5.4,5.3h9.9c0.5,0,2.5-0.1,4.3,1.5C250.1,143.7,250.9,146,250.9,149z"/>
		<path class="st7" d="M281.2,57.3v86.3c-0.2,2.9-2.2,8.2-8.4,8.2l-10.1,0c0,0-1.2-0.1-2.1,0.8c-0.9,0.8-1.4,2.4-1.4,4.5v3.3h-3
			v-3.3c0-3,0.8-5.3,2.4-6.7c1.7-1.6,3.8-1.6,4.3-1.5h9.9c4.8,0,5.4-4.6,5.4-5.3V57.3H281.2z"/>
		<rect x="187.2" y="71.9" class="st8" width="3" height="88.5"/>
		<path class="st5" d="M186,139.2v21.3h-3v-21.3c0-2.1-0.5-3.7-1.4-4.5c-0.9-0.8-2.1-0.8-2.1-0.8l-0.2,0h-10c-6.2,0-8.2-5.3-8.4-8.1
			v-12.8l0-6.7V88.5l0.3,0.3l0.7,0.7l2,2.1v33.9c0.1,0.7,0.6,5.3,5.4,5.3h9.9c0.5,0,2.5,0,4.3,1.5C185.2,133.9,186,136.2,186,139.2z
			"/>
	</g>
	<path class="st9" d="M177.8,97.6c0,8.5-6.9,15.4-15.4,15.4c-8.5,0-15.4-6.9-15.4-15.4s6.9-15.4,15.4-15.4
		C170.9,82.1,177.8,89,177.8,97.6z"/>
	<circle class="st8" cx="231.4" cy="38.9" r="23.4"/>
	<g>
		<path class="st10" d="M307.8,68.4c0,14.7-11.9,26.6-26.6,26.6s-26.6-11.9-26.6-26.6c0-14.7,11.9-26.6,26.6-26.6
			S307.8,53.7,307.8,68.4z"/>
		<g>
			<g>
				<g>
					<path class="st11" d="M271,76.3c0.8,0,1.4-0.7,1.4-1.5v-9.2h-2.8v9.2C269.6,75.7,270.2,76.3,271,76.3z"/>
					<path class="st11" d="M272.8,56.4h-3.6c-0.4,0-0.8,0.4-0.8,0.8c0,0.3,0.2,0.5,0.4,0.7V75c0,1.2,1,2.2,2.2,2.2
						c1.2,0,2.2-1,2.2-2.2V57.8c0.2-0.1,0.4-0.4,0.4-0.7C273.6,56.7,273.2,56.4,272.8,56.4z M269.2,56.9h3.6c0.1,0,0.3,0.1,0.3,0.3
						c0,0.2-0.1,0.3-0.3,0.3h-3.6c-0.2,0-0.3-0.1-0.3-0.3C268.9,57,269,56.9,269.2,56.9z M272.7,75c0,0.9-0.8,1.7-1.7,1.7
						c-0.9,0-1.7-0.8-1.7-1.7V57.9h3.4V75z"/>
				</g>
				<g>
					<path class="st11" d="M277.8,76.3c0.8,0,1.4-0.7,1.4-1.5v-9.2h-2.8v9.2C276.4,75.7,277,76.3,277.8,76.3z"/>
					<path class="st11" d="M279.6,56.4H276c-0.4,0-0.8,0.4-0.8,0.8c0,0.3,0.2,0.5,0.4,0.7V75c0,1.2,1,2.2,2.2,2.2c0.2,0,0.3,0,0.5,0
						c1-0.2,1.7-1.1,1.7-2.1V57.8c0.2-0.1,0.3-0.3,0.4-0.5c0-0.1,0-0.1,0-0.2C280.4,56.7,280,56.4,279.6,56.4z M279.5,75
						c0,0.8-0.5,1.4-1.3,1.6c-0.1,0-0.3,0.1-0.5,0.1c-0.9,0-1.7-0.8-1.7-1.7V57.9h3.4V75z M279.6,57.4H276c-0.2,0-0.3-0.1-0.3-0.3
						c0-0.2,0.1-0.3,0.3-0.3h3.6c0.2,0,0.3,0.1,0.3,0.3c0,0.1,0,0.2-0.1,0.2S279.7,57.4,279.6,57.4z"/>
				</g>
				<g>
					<path class="st11" d="M284.6,76.3c0.8,0,1.4-0.7,1.4-1.5v-9.2h-2.8v9.2C283.2,75.7,283.8,76.3,284.6,76.3z"/>
					<path class="st11" d="M286.4,56.4h-3.6c-0.4,0-0.8,0.4-0.8,0.8c0,0.3,0.2,0.5,0.4,0.7V75c0,1.2,1,2.2,2.2,2.2
						c1.2,0,2.2-1,2.2-2.2V57.8c0.2-0.1,0.4-0.4,0.4-0.7C287.2,56.7,286.8,56.4,286.4,56.4z M282.7,56.9h3.6c0.2,0,0.3,0.1,0.3,0.3
						c0,0.2-0.1,0.3-0.3,0.3h-3.6c-0.1,0-0.3-0.1-0.3-0.3C282.5,57,282.6,56.9,282.7,56.9z M286.3,75c0,0.9-0.8,1.7-1.7,1.7
						s-1.7-0.8-1.7-1.7V57.9h3.4V75z"/>
				</g>
				<g>
					<path class="st11" d="M291.4,76.3c0.8,0,1.4-0.7,1.4-1.5v-9.2H290v9.2C290,75.7,290.6,76.3,291.4,76.3z"/>
					<path class="st11" d="M293.2,56.4h-3.6c-0.4,0-0.8,0.4-0.8,0.8c0,0.3,0.2,0.5,0.4,0.7V75c0,1.2,1,2.2,2.2,2.2
						c1.2,0,2.2-1,2.2-2.2V57.8c0.2-0.1,0.4-0.4,0.4-0.7C294,56.7,293.6,56.4,293.2,56.4z M289.6,56.9h3.6c0.2,0,0.3,0.1,0.3,0.3
						c0,0.2-0.1,0.3-0.3,0.3h-3.6c-0.2,0-0.3-0.1-0.3-0.3C289.3,57,289.4,56.9,289.6,56.9z M293.1,75c0,0.9-0.8,1.7-1.7,1.7
						s-1.7-0.8-1.7-1.7V57.9h3.4V75z"/>
				</g>
			</g>
			<path class="st11" d="M296.8,78.1H296V63.9h0.8c0.1,0,0.1-0.1,0.1-0.1v-1c0-0.1,0-0.1-0.1-0.1h-31.3c-0.1,0-0.1,0.1-0.1,0.1v1
				c0,0.1,0.1,0.1,0.1,0.1h0.8v14.2h-0.8c-0.1,0-0.1,0.1-0.1,0.1v2c0,0.1,0,0.1,0.1,0.1h31.3c0.1,0,0.1-0.1,0.1-0.1v-2
				C297,78.1,296.9,78.1,296.8,78.1z M294.9,78.1h-27.5V63.9h27.5V78.1z"/>
		</g>
	</g>
	<g>
		<path class="st12" d="M79.7,99.9c0,9.2-7.5,16.7-16.7,16.7c-9.2,0-16.7-7.5-16.7-16.7c0-9.2,7.5-16.7,16.7-16.7
			C72.2,83.2,79.7,90.6,79.7,99.9z"/>
		<path class="st11" d="M70.9,94.4c-0.7-3.4-4-5.9-7.9-5.9c-3.9,0-7.2,2.5-7.9,5.9C55,94.8,55,95.2,55,95.6l0,0.1c0,0.2,0,0.4,0,0.5
			c0,0.4,0.1,0.8,0.2,1.1c0.4,1.7,1.4,3.3,2.1,4.5c0.2,0.3,0.4,0.6,0.5,0.8c1,1.8,1.2,3.7,1.3,4v0c0,0,0,0.1,0,0.2
			c-0.2,0.2-0.3,0.3-0.3,0.5c0,0.2,0.1,0.4,0.3,0.6c-0.2,0.2-0.3,0.4-0.3,0.6c0,0.3,0.1,0.5,0.4,0.7c-0.3,0.2-0.4,0.4-0.4,0.7
			c0,0.3,0.2,0.5,0.5,0.8c0.1,0.1,0.2,0.1,0.4,0.2c0.4,0.1,1,0.2,1.7,0.2c0.5,0,1,0,1.5,0c0.5,0,1,0,1.5,0c0.8,0,1.4-0.1,1.8-0.2
			c0.2-0.1,0.3-0.1,0.4-0.2c0.4-0.3,0.5-0.6,0.5-0.8c0-0.2-0.1-0.4-0.4-0.7c0.3-0.3,0.4-0.5,0.4-0.7c0-0.2,0-0.4-0.3-0.6
			c0.2-0.2,0.3-0.4,0.3-0.6c0-0.1,0-0.3-0.3-0.6l0-0.1c0,0,0.2-2.1,1.3-4c0.1-0.3,0.3-0.5,0.5-0.8c0.7-1.2,1.7-2.8,2.1-4.5
			c0.1-0.4,0.2-0.8,0.2-1.1c0-0.2,0-0.4,0-0.5v-0.1C71,95.2,70.9,94.8,70.9,94.4z M66.3,110.3c-0.1,0.1-0.2,0.1-0.3,0.2
			c-0.3,0.1-0.9,0.1-1.6,0.2c-0.5,0-0.9,0-1.5,0c-0.5,0-1,0-1.5,0c-0.7,0-1.3-0.1-1.6-0.2c-0.1,0-0.2-0.1-0.3-0.1
			c-0.2-0.1-0.3-0.3-0.3-0.3c0-0.1,0-0.1,0.1-0.2c0.3,0.1,0.8,0.3,2,0.3c0.4,0,0.9,0,1.5,0c0.6,0,1,0,1.5,0c1.2-0.1,1.7-0.2,2-0.3
			c0.1,0.1,0.1,0.2,0.1,0.2C66.6,110.1,66.5,110.2,66.3,110.3z M66.3,108.9c-0.1,0.1-0.2,0.1-0.3,0.1c-0.3,0.1-0.9,0.2-1.6,0.2
			c-0.5,0-0.9,0-1.5,0c-0.5,0-1,0-1.5,0c-0.7,0-1.3-0.1-1.6-0.2c-0.1,0-0.2-0.1-0.3-0.1c-0.2-0.1-0.3-0.3-0.3-0.3
			c0-0.1,0-0.1,0.1-0.2c0.3,0.1,0.8,0.3,2,0.3c0.4,0,0.9,0,1.5,0c0.6,0,1,0,1.5,0c1.2-0.1,1.7-0.2,2-0.3c0.1,0.1,0.1,0.2,0.1,0.2
			C66.6,108.7,66.5,108.8,66.3,108.9z M66.3,107.7c-0.1,0.1-0.2,0.1-0.3,0.2c-0.3,0.1-0.9,0.1-1.6,0.2c-0.5,0-0.9,0-1.5,0
			c-0.5,0-1,0-1.5,0c-0.7,0-1.3-0.1-1.6-0.2c-0.1-0.1-0.2-0.1-0.3-0.2c-0.2-0.1-0.3-0.2-0.3-0.3c0-0.1,0-0.1,0.1-0.2
			c0.3,0.1,0.8,0.3,2,0.3c0.4,0,0.9,0,1.5,0c0.6,0,1,0,1.5,0c1.2-0.1,1.7-0.2,2-0.3c0.1,0.1,0.1,0.2,0.1,0.2
			C66.6,107.5,66.5,107.6,66.3,107.7z M61.5,106.9c-0.1-1.3-0.7-6.4-1.3-9.1c0.4-0.5,0.7-1.1,0.9-1.6l0.5,0.9l0.6,1l1.2-1.6l1.2,1.7
			l0.7-1.5c0.2,0.3,0.4,0.7,0.8,1c-0.5,2.5-1.2,6.8-1.5,8.6c0,0.3-0.1,0.5-0.1,0.6c-0.4,0-0.9,0-1.4,0
			C62.4,106.9,61.9,106.9,61.5,106.9L61.5,106.9z M70.4,96.2c0,0.4-0.1,0.7-0.2,1.1c-0.4,1.7-1.4,3.2-2.1,4.4
			c-0.2,0.3-0.4,0.6-0.5,0.9c-0.9,1.6-1.2,3.4-1.3,4h0v0.1c-0.2,0.1-0.8,0.2-1.6,0.2c0.2-1.3,1-6.2,1.5-9c0.1,0,0.2,0.1,0.3,0.1
			c0.5,0.1,0.9-0.1,1.4-0.7c0.7-0.8,0.6-1.4,0.5-1.6c-0.2-0.3-0.5-0.5-1-0.5c-0.5,0-1,0.3-1.1,0.8c-0.1,0.2-0.2,0.6-0.3,1.2
			c-0.3-0.4-0.6-0.9-0.7-1.1l-0.2-0.5L64.5,97l-0.1,0.2l-1.1-1.6l-1.1,1.6l-0.6-1.1l-0.6-1l-0.2,0.5c-0.1,0.3-0.4,1.1-0.8,1.6
			c-0.1-0.5-0.3-0.9-0.4-1.1c-0.3-0.5-0.7-0.5-0.8-0.5c-0.3,0.1-0.6,0.4-0.8,0.9c-0.1,0.5,0,1.2,0.6,1.6c0.3,0.2,0.5,0.2,0.8,0.1
			c0.1,0,0.3-0.1,0.4-0.2c0.5,2.3,1,6.3,1.3,8.7c-0.7,0-1.3-0.1-1.4-0.2c0-0.5-0.3-2.4-1.3-4.2c-0.2-0.3-0.3-0.5-0.5-0.9
			c-0.7-1.1-1.7-2.7-2.1-4.4c-0.1-0.3-0.2-0.7-0.2-1.1c0-0.2,0-0.3,0-0.5h0c0-0.4,0-0.7,0.1-1.1c0.6-3.2,3.7-5.5,7.4-5.5
			c3.6,0,6.8,2.3,7.4,5.5c0.1,0.4,0.1,0.7,0.1,1.1C70.5,95.9,70.4,96,70.4,96.2z M66.4,97.4c0.1-0.7,0.3-1.1,0.3-1.4
			c0.1-0.4,0.5-0.5,0.8-0.5c0.3,0,0.5,0.1,0.5,0.3c0.1,0.3,0,0.7-0.4,1.2c-0.3,0.4-0.7,0.6-1,0.5C66.5,97.5,66.5,97.5,66.4,97.4z
			 M59.6,97.6c-0.1,0.1-0.3,0.2-0.4,0.3c-0.1,0-0.3,0-0.4-0.1c-0.4-0.3-0.5-0.8-0.4-1.2c0.1-0.3,0.2-0.5,0.4-0.6c0,0,0,0,0,0
			c0.1,0,0.3,0.2,0.4,0.3C59.4,96.5,59.5,97,59.6,97.6z"/>
	</g>
	<g>
		<path class="st1" d="M205.5,71.9c0,9.2-7.4,16.6-16.6,16.6c-9.2,0-16.6-7.4-16.6-16.6c0-9.2,7.4-16.6,16.6-16.6
			C198.1,55.3,205.5,62.7,205.5,71.9z"/>
		<g>
			<g>
				<g>
					<path class="st11" d="M194.7,79.7l-2.9-5.4H186l-2.9,5.5c0,0-0.9,1.5,1.5,1.5c2.4,0,5.8,0,8.2,0
						C195.7,81.2,194.7,79.7,194.7,79.7z"/>
				</g>
			</g>
			<g>
				<path class="st11" d="M195.2,79.7l-4.3-8.1v-8.2c0.3-0.1,0.5-0.3,0.5-0.6c0-0.4-0.3-0.7-0.7-0.7H187c-0.4,0-0.7,0.3-0.7,0.7
					c0,0.3,0.2,0.6,0.5,0.6v8.2l-4.3,8.1c0,0.1-0.4,0.7-0.1,1.3c0.3,0.5,0.9,0.7,1.9,0.7h8.9c1,0,1.7-0.2,1.9-0.7
					C195.6,80.4,195.2,79.7,195.2,79.7z M186.7,62.8c0-0.2,0.2-0.3,0.4-0.3h3.7c0.2,0,0.3,0.2,0.3,0.3s-0.2,0.3-0.3,0.3H187
					C186.9,63.2,186.7,63,186.7,62.8z M195,80.8c-0.2,0.4-0.8,0.5-1.7,0.5h-8.9c-0.9,0-1.4-0.2-1.6-0.5c-0.2-0.4,0.1-0.9,0.1-1
					l4.3-8.1l0,0v-8.2h3.4v8.2l4.3,8.2C194.9,79.9,195.2,80.4,195,80.8z"/>
			</g>
		</g>
	</g>
	<g>
		<path class="st6" d="M106.1,50.5c0,8.4-6.8,15.1-15.1,15.1c-8.4,0-15.1-6.8-15.1-15.1c0-8.4,6.8-15.1,15.1-15.1
			C99.3,35.4,106.1,42.2,106.1,50.5z"/>
		<g>
			<path class="st11" d="M83.9,42.9v16.1h14V42.9H83.9z M90.7,43.7c0.1,0,0.1,0,0.2,0s0.1,0,0.2,0c0.1,0.1,0.2,0.2,0.2,0.4
				c0,0.2-0.2,0.4-0.4,0.4s-0.4-0.2-0.4-0.4C90.5,43.9,90.6,43.8,90.7,43.7z M84.9,44.5c-0.2,0-0.4-0.2-0.4-0.4
				c0-0.2,0.1-0.3,0.3-0.4c0.1,0,0.1,0,0.2,0c0.1,0,0.2,0,0.2,0.1c0.1,0.1,0.2,0.2,0.2,0.4C85.4,44.3,85.2,44.5,84.9,44.5z
				 M86.9,44.5c-0.3,0-0.4-0.2-0.4-0.4c0-0.2,0.1-0.4,0.3-0.4c0,0,0.1,0,0.2,0c0.1,0,0.2,0,0.2,0.1c0.1,0.1,0.2,0.2,0.2,0.4
				C87.4,44.3,87.2,44.5,86.9,44.5z M88.9,44.5c-0.2,0-0.4-0.2-0.4-0.4c0-0.2,0.1-0.3,0.3-0.4c0,0,0.1,0,0.2,0c0.1,0,0.2,0,0.2,0.1
				c0.1,0.1,0.2,0.2,0.2,0.4C89.4,44.3,89.2,44.5,88.9,44.5z M92.9,44.5c-0.2,0-0.4-0.2-0.4-0.4c0-0.2,0.1-0.3,0.3-0.4
				c0,0,0.1,0,0.2,0c0.1,0,0.2,0,0.2,0.1c0.1,0.1,0.2,0.2,0.2,0.4C93.4,44.3,93.2,44.5,92.9,44.5z M95,44.5c-0.3,0-0.4-0.2-0.4-0.4
				c0-0.2,0.1-0.3,0.3-0.4c0,0,0.1,0,0.2,0c0.1,0,0.2,0,0.2,0.1c0.1,0.1,0.2,0.2,0.2,0.4C95.4,44.3,95.2,44.5,95,44.5z M97,44.5
				c-0.2,0-0.4-0.2-0.4-0.4c0-0.2,0.1-0.3,0.3-0.4c0,0,0.1,0,0.2,0c0.1,0,0.2,0,0.2,0.1c0.1,0.1,0.2,0.2,0.2,0.4
				C97.4,44.3,97.2,44.5,97,44.5z"/>
			<path class="st11" d="M85.1,44c0,0.1-0.1,0.2-0.2,0.2l0,0c-0.1,0-0.2-0.1-0.2-0.2v-1.8c0-0.1,0.1-0.2,0.2-0.2l0,0
				c0.1,0,0.2,0.1,0.2,0.2V44z"/>
			<path class="st11" d="M91.1,44c0,0.1-0.1,0.2-0.2,0.2l0,0c-0.1,0-0.2-0.1-0.2-0.2v-1.8c0-0.1,0.1-0.2,0.2-0.2l0,0
				c0.1,0,0.2,0.1,0.2,0.2V44z"/>
			<path class="st11" d="M95.2,44c0,0.1-0.1,0.2-0.2,0.2l0,0c-0.1,0-0.2-0.1-0.2-0.2v-1.8c0-0.1,0.1-0.2,0.2-0.2l0,0
				c0.1,0,0.2,0.1,0.2,0.2V44z"/>
			<path class="st11" d="M97.2,44c0,0.1-0.1,0.2-0.2,0.2l0,0c-0.1,0-0.2-0.1-0.2-0.2v-1.8c0-0.1,0.1-0.2,0.2-0.2l0,0
				c0.1,0,0.2,0.1,0.2,0.2V44z"/>
			<path class="st11" d="M93.2,44c0,0.1-0.1,0.2-0.2,0.2l0,0c-0.1,0-0.2-0.1-0.2-0.2v-1.8c0-0.1,0.1-0.2,0.2-0.2l0,0
				c0.1,0,0.2,0.1,0.2,0.2V44z"/>
			<path class="st11" d="M89.2,44c0,0.1-0.1,0.2-0.2,0.2l0,0c-0.1,0-0.2-0.1-0.2-0.2v-1.8c0-0.1,0.1-0.2,0.2-0.2l0,0
				c0.1,0,0.2,0.1,0.2,0.2V44z"/>
			<path class="st11" d="M87.2,44c0,0.1-0.1,0.2-0.2,0.2l0,0c-0.1,0-0.2-0.1-0.2-0.2v-1.8c0-0.1,0.1-0.2,0.2-0.2l0,0
				c0.1,0,0.2,0.1,0.2,0.2V44z"/>
		</g>
	</g>
	<path class="st11" d="M245.9,25.3h-29.1c-0.8,0-0.9,0.8-0.9,0.8v20c0,0,0,0.8,0.9,0.8h11.3v1.6c0,0,0,1.3-1.1,1.8
		c-0.2,0.1-0.6,0.2-1.1,0.3c-1.6,0.4-3.9,1-3.9,1s-0.4,0.2-0.4,0.4c0,0,0,0,0,0v0.4c0,0,0,0.1,0.2,0.2h19.1c0.2,0,0.2-0.2,0.2-0.2
		V52c0,0,0,0,0,0c0-0.2-0.4-0.4-0.4-0.4s-3.9-0.9-5-1.3c-1.1-0.5-1.1-1.8-1.1-1.8V47h11.3c0.9,0,0.9-0.8,0.9-0.8v-20
		C246.8,26.1,246.8,25.3,245.9,25.3z M245.8,42.3h-28.9V27.5h28.9V42.3z"/>
	<g>
		<path class="st7" d="M171.4,34.6c0,15.9-12.9,28.8-28.8,28.8c-15.9,0-28.8-12.9-28.8-28.8s12.9-28.8,28.8-28.8
			C158.5,5.9,171.4,18.7,171.4,34.6z"/>
		<path class="st11" d="M142.7,18.4c-8.9,0-16.2,7.3-16.2,16.2c0,8.5,6.6,15.5,15,16.2c0.4,0,0.8,0,1.2,0c0.6,0,1.2,0,1.7-0.1
			c8.1-0.9,14.5-7.8,14.5-16.1C158.9,25.7,151.6,18.4,142.7,18.4z M142.4,43.4c1,1.8,1.6,1.1,3.4,0.5c0.7-0.3,1.4-0.4,2.1-0.9
			c0.7-0.5,1.9-1.7,2.2-0.3c0.4,1.7,0.4,3.2,2,4.1c-2.2,1.7-4.8,2.8-7.7,3.1c-0.6,0.1-1.1,0.1-1.7,0.1c-0.4,0-0.8,0-1.2-0.1
			c-3.2-0.3-6-1.5-8.4-3.3c0,0,0-0.1,0-0.1c-0.1-0.7,0.3-0.8,0.3-1.4c-0.1-0.8,0-0.9-0.1-1.6c-0.2-1.6,0.7-2,1.6-2.9
			c1.1-1.1,1.7-2,0.2-2.9c-0.9-0.5-1.8-1-2.8-1.5c-1.5-0.7-1.5-2.6-1.6-4c0-2.2-1.6-1.7-3.1-1.2c1.3-5.6,5.6-10,11.2-11.4
			c0.3,1,1,2.1,0.8,3.2c-0.1,0.6,0.3,0.7,0.8,0.8c1.3,0.4,2.5,1.1,3.6,2.1c0.6,0.6,1.3,2.7,2.3,2.9c1.7,0.4,3.4-0.3,4.4-1.8
			c0.3-0.5,1.2-3.1,1.5-3c0.4,0,0.7,0,1-0.2c0.1,0,0.1-0.1,0.2-0.2c1.4,1.3,2.5,2.9,3.3,4.7c-1.8,1.3-3.7,2.5-5.5,3.9
			c-1,0.7-2.2,1.7-2.5,2.9c-0.2,0.8-0.2,1.7-0.3,2.5c-0.2,1.7-2.6,1.7-3.8,1.8c-1.2,0.2-2.6,0.2-3.3,1.4
			C140.9,41.6,142,42.8,142.4,43.4z"/>
	</g>
	<g>
		<path class="st2" d="M133.3,83.2c0,9.3-7.5,16.8-16.8,16.8c-9.3,0-16.8-7.5-16.8-16.8c0-9.3,7.5-16.8,16.8-16.8
			C125.8,66.3,133.3,73.9,133.3,83.2z"/>
		<path class="st11" d="M126.7,77.4c-0.1-0.3-0.4-0.9-0.9-1.6c-0.5-0.6-1.2-1.3-1.6-1.3c-0.1,0-0.1,0-0.2,0v0
			c-0.1,0-0.3,0.1-0.4,0.3l-1.2,1c-0.2,0-0.3,0-0.4,0.1c-0.1,0.1-0.2,0.2-0.2,0.5l-0.2,0.2c-0.2-0.1-0.4,0-0.5,0.1
			c-0.1,0.1-0.2,0.2-0.2,0.4l-2.7,2.2l-3,2.4l-7.1,5.8c0,0-0.1,0.1,0,0.1c-0.3,0.5-0.9,1.4-1.3,2.3c0,0-0.1,0-0.1,0.1
			c-0.5,1-0.5,1.3-0.5,1.5c0,0,0,0.1,0.1,0.1c0,0.1,0.1,0.1,0.3,0.1c0.3,0,0.7-0.1,1.4-0.2c0,0,0.1,0,0.1-0.1c1-0.2,2.2-0.5,2.5-0.6
			c0,0,0,0,0.1,0c0,0,0.1,0,0.1,0l4.4-3.6l3-2.4l5.4-4.4c0.1,0,0.1,0,0.1,0c0.1,0,0.2,0,0.3-0.1c0.1-0.1,0.2-0.3,0.2-0.5
			c0,0,0,0,0,0c0.1-0.1,0.1-0.1,0.1-0.1c0.1,0,0.2,0,0.3,0c0.1,0,0.2,0,0.3-0.1s0.2-0.2,0.2-0.4l1.4-1.1c0,0,0.1-0.1,0.2-0.2
			c0-0.1,0.1-0.1,0.1-0.2C126.7,77.5,126.7,77.5,126.7,77.4z M115.2,82.1l3-2.4l2.8-2.3c0.1,0.3,0.2,0.6,0.4,0.9l-3.2,2.6l-3,2.4
			l-6.1,5c0-0.1,0-0.3,0-0.4c0-0.1-0.1-0.2-0.1-0.3c-0.1-0.1-0.2-0.2-0.3-0.2L115.2,82.1z M109.9,88.8c-0.1-0.2-0.3-0.2-0.4-0.3
			l5.8-4.7l3-2.4l3.3-2.7c0.1,0.1,0.2,0.3,0.3,0.4s0.2,0.3,0.3,0.4l-4,3.3l-3,2.4l-5.2,4.3C110.1,89.2,110.1,89,109.9,88.8z
			 M106.6,91.5L106.6,91.5C106.5,91.4,106.5,91.4,106.6,91.5c-0.1-0.3,0.1-0.7,0.3-1.2c0.1,0.1,0.1,0.2,0.2,0.3
			c0.2,0.3,0.4,0.5,0.7,0.7C107.2,91.4,106.8,91.5,106.6,91.5z M110.6,90.6C110.6,90.6,110.6,90.6,110.6,90.6
			c-0.3,0.1-1.5,0.4-2.6,0.7c0,0,0,0,0,0c-0.3-0.2-0.6-0.4-0.8-0.7c-0.1-0.1-0.2-0.3-0.2-0.4c0.3-0.7,0.8-1.5,1.3-2.3c0,0,0,0,0,0
			c0,0,0.1-0.1,0.3-0.1c0.1,0,0.2,0,0.2,0.1c0,0.1,0.1,0.1,0.1,0.2c0.1,0.4-0.3,0.8-0.3,0.8c0,0,0,0.1,0,0.1c0,0,0,0,0,0
			c0,0.1,0.1,0.1,0.1,0.1c0,0,0,0,0,0c0,0,0.1,0,0.1,0c0,0,0,0,0.1-0.1l0.2-0.2c0.1,0,0.2-0.1,0.3-0.1c0.1,0,0.2,0.1,0.3,0.2
			c0.2,0.3,0.1,0.5-0.1,0.8l-0.3,0.2c0,0-0.1,0.1-0.1,0.2c0,0.1,0.1,0.1,0.2,0.1h0c0,0,0,0,0,0c0.2-0.1,0.5-0.2,0.8-0.2
			c0.1,0,0.3,0,0.4,0.1c0,0,0,0,0,0.1C110.9,90.3,110.7,90.5,110.6,90.6z M118.2,84.3l-3,2.4l-4.1,3.4c0,0,0-0.1,0-0.1
			c0-0.1-0.1-0.2-0.1-0.2c-0.1-0.1-0.3-0.2-0.6-0.2c-0.1,0-0.1,0-0.2,0l5-4.1l3-2.4l4.2-3.4c0.2,0.2,0.4,0.4,0.6,0.5
			c0.1,0,0.1,0.1,0.2,0.1L118.2,84.3z M123.8,80c-0.1,0.1-0.3,0-0.6-0.2c-0.3-0.2-0.8-0.6-1.1-1c-0.4-0.5-0.8-1.1-0.8-1.5
			c-0.1-0.2,0-0.4,0-0.4c0,0,0.1,0,0.1,0c0,0.2,0,0.4,0.1,0.8c0.3,0.7,1.4,2.1,2,2.3C123.5,79.9,123.7,80,123.8,80
			C123.8,80,123.8,80,123.8,80C123.8,80,123.8,80,123.8,80z M124,79.6C124,79.6,123.9,79.7,124,79.6L124,79.6
			c-0.2,0.2-0.4,0.1-0.5,0.1c-0.5-0.2-1.6-1.5-1.8-2.1c-0.2-0.5-0.1-0.7-0.1-0.7h0c0,0,0.1,0,0.1-0.1c0,0,0,0,0-0.1l0.1-0.1
			c0,0,0,0,0,0c0.1,0.5,0.4,1.1,0.9,1.6c0.5,0.6,1,1,1.4,1.2C124.1,79.5,124,79.6,124,79.6z M124.7,79.3c-0.2,0.2-1-0.3-1.7-1.2
			c-0.4-0.5-0.7-1.1-0.8-1.5c-0.1-0.2,0-0.4,0-0.4c0,0,0,0,0,0c0,0.1,0,0.3,0,0.5c0.1,0.4,0.4,1,0.8,1.4
			C123.6,78.8,124.3,79.3,124.7,79.3C124.7,79.3,124.7,79.3,124.7,79.3z M124.8,78.9c-0.2,0.1-0.9-0.2-1.6-1
			c-0.4-0.4-0.6-0.9-0.7-1.3c0-0.2,0-0.4,0-0.5c0,0,0,0,0,0l1.3-1c0,0,0.1-0.1,0.1-0.1c0.1,0.3,0.4,0.9,0.9,1.5
			c0.2,0.2,0.8,1,1.3,1.2L124.8,78.9z M125.1,76.4c-0.5-0.5-0.8-1.1-0.9-1.4c0,0,0,0,0-0.1c0.2,0,0.6,0.4,1.3,1.2
			c0.4,0.6,0.8,1.1,0.9,1.4c0,0,0,0,0,0.1C126.2,77.5,125.7,77.2,125.1,76.4z"/>
	</g>
	<g>
		<path class="st13" d="M63.2,56.6c0,14.7-11.9,26.6-26.6,26.6C21.9,83.2,10,71.2,10,56.6C10,41.9,21.9,30,36.6,30
			C51.3,30,63.2,41.9,63.2,56.6z"/>
		<g>
			<path class="st11" d="M36.6,41.2c-8.5,0-15.4,6.9-15.4,15.4c0,8.1,6.3,14.7,14.2,15.3c0.4,0,0.8,0,1.2,0c0.6,0,1.2,0,1.8-0.1
				C46,71,51.9,64.4,51.9,56.5C51.9,48.1,45,41.2,36.6,41.2z M38.3,70.2c-0.6,0.1-1.2,0.1-1.8,0.1c-0.4,0-0.8,0-1.2-0.1
				c-7-0.6-12.6-6.5-12.6-13.7c0-7.6,6.2-13.8,13.8-13.8c7.6,0,13.8,6.2,13.8,13.8C50.3,63.5,45.1,69.3,38.3,70.2z"/>
			<path class="st11" d="M36.6,44.8c0.4,0,0.8-0.4,0.8-0.8c0-0.4-0.4-0.8-0.8-0.8c-0.4,0-0.8,0.4-0.8,0.8
				C35.8,44.4,36.1,44.8,36.6,44.8z"/>
			<path class="st11" d="M36.6,68.4c-0.4,0-0.8,0.4-0.8,0.8c0,0.4,0.4,0.8,0.8,0.8c0.4,0,0.8-0.4,0.8-0.8
				C37.4,68.7,37,68.4,36.6,68.4z"/>
			<path class="st11" d="M49.1,55.8c-0.4,0-0.8,0.4-0.8,0.8c0,0.4,0.4,0.8,0.8,0.8c0.4,0,0.8-0.4,0.8-0.8
				C49.9,56.1,49.6,55.8,49.1,55.8z"/>
			<circle class="st11" cx="24" cy="56.6" r="0.8"/>
			<path class="st11" d="M42.8,46.1c0.2,0.1,0.5,0.1,0.6-0.1c0.1-0.2,0.1-0.5-0.1-0.6c-0.2-0.1-0.4-0.1-0.6,0.1
				C42.5,45.7,42.6,46,42.8,46.1z"/>
			<path class="st11" d="M30.3,67c-0.2-0.1-0.5-0.1-0.6,0.1c-0.1,0.2-0.1,0.4,0.1,0.6c0.2,0.1,0.5,0.1,0.6-0.1
				C30.6,67.4,30.5,67.1,30.3,67z"/>
			<path class="st11" d="M47.6,62.6c-0.2-0.1-0.4-0.1-0.6,0.1c-0.1,0.2-0.1,0.5,0.1,0.6c0.2,0.1,0.5,0.1,0.6-0.1
				C47.8,63,47.8,62.8,47.6,62.6z"/>
			<path class="st11" d="M26,49.8c-0.2-0.1-0.5-0.1-0.6,0.1c-0.1,0.2-0.1,0.5,0.1,0.6c0.2,0.1,0.4,0.1,0.6-0.1
				C26.2,50.1,26.2,49.9,26,49.8z"/>
			<path class="st11" d="M47.4,50.2c-0.2,0.1-0.3,0.4-0.2,0.6c0.1,0.2,0.4,0.3,0.6,0.2c0.2-0.1,0.3-0.4,0.2-0.6
				C47.8,50.1,47.6,50,47.4,50.2z"/>
			<path class="st11" d="M25.3,62.2c-0.2,0.1-0.3,0.4-0.2,0.6c0.1,0.2,0.4,0.3,0.6,0.2c0.2-0.1,0.3-0.4,0.2-0.6
				C25.8,62.2,25.5,62.1,25.3,62.2z"/>
			<path class="st11" d="M42.4,67.2c-0.2,0.1-0.3,0.4-0.2,0.6c0.1,0.2,0.4,0.3,0.6,0.2c0.2-0.1,0.3-0.4,0.2-0.6
				C42.8,67.2,42.6,67.1,42.4,67.2z"/>
			<path class="st11" d="M30.3,45.2c-0.2,0.1-0.3,0.4-0.2,0.6c0.1,0.2,0.4,0.3,0.6,0.2c0.2-0.1,0.3-0.4,0.2-0.6
				C30.8,45.1,30.5,45,30.3,45.2z"/>
			<path class="st11" d="M44,56.1l-2.4-1.2c-0.1-0.1-0.2,0-0.3,0c-0.1,0.1-0.2,0.2-0.2,0.3v0.7h-3c-0.2-0.4-0.6-0.8-1.1-0.9v-4.8
				h0.7c0.1,0,0.2-0.1,0.3-0.2c0.1-0.1,0.1-0.2,0-0.3l-1.1-2.4c0-0.1-0.2-0.2-0.3-0.2c-0.1,0-0.2,0.1-0.3,0.2l-1.2,2.4
				c-0.1,0.1-0.1,0.2,0,0.3c0.1,0.1,0.2,0.2,0.3,0.2h0.7v4.8c-0.7,0.2-1.3,0.9-1.3,1.7c0,0.9,0.8,1.7,1.7,1.7c0.9,0,1.6-0.7,1.7-1.5
				h2.8v0.7c0,0.1,0.1,0.2,0.2,0.3c0.1,0,0.1,0,0.2,0c0,0,0.1,0,0.2,0l2.4-1.1c0.1-0.1,0.2-0.2,0.2-0.3S44.1,56.1,44,56.1z
				 M36.7,49.9v5c0,0-0.1,0-0.1,0c0,0-0.1,0-0.1,0v-5c0-0.1-0.1-0.2-0.2-0.2h-0.9l0,0v0l1.2-2.4h0c0,0,0,0,0,0l1.1,2.4v0
				c0,0,0,0,0,0h-0.9C36.8,49.8,36.7,49.9,36.7,49.9z M43.8,56.4l-2.4,1.1h0c0,0,0,0,0,0v-0.9c0-0.1-0.1-0.2-0.2-0.2h-3
				c0-0.1,0-0.2,0-0.3h3c0.1,0,0.2-0.1,0.2-0.2v-0.9c0,0,0,0,0,0l0,0L43.8,56.4L43.8,56.4L43.8,56.4z"/>
		</g>
	</g>
	<path class="st11" d="M156.4,88.9v17.4h11.9V88.9H156.4z M161.9,106c-0.2,0-0.4-0.2-0.4-0.4c0-0.2,0.2-0.4,0.4-0.4
		c0.2,0,0.4,0.2,0.4,0.4C162.3,105.8,162.2,106,161.9,106z M167.8,104.8h-10.9V89.6h10.9V104.8z"/>
	<g>
		<path class="st0" d="M273.9,111.2c0,12-9.7,21.7-21.7,21.7c-12,0-21.7-9.7-21.7-21.7c0-12,9.7-21.7,21.7-21.7
			C264.2,89.5,273.9,99.2,273.9,111.2z"/>
		<g>
			<g>
				<path class="st11" d="M255,106.9c-0.2-0.1-0.4-0.1-0.5-0.2v-8.9c0-0.1-0.1-0.2-0.2-0.2h-4c-0.1,0-0.2,0.1-0.2,0.2v8.9
					c-4.4,1-7.6,5-7.6,9.5c0,5.3,4.3,9.7,9.6,9.8h0.2c1,0,1.9-0.1,2.8-0.4c4.1-1.2,7-5,7-9.4C262,111.9,259.1,108,255,106.9z
					 M255,125.2c-0.9,0.3-1.8,0.4-2.8,0.4h-0.2c-5.1-0.1-9.2-4.3-9.2-9.4c0-4.4,3.1-8.3,7.4-9.2c0.1,0,0.2-0.1,0.2-0.2V98h3.6v8.9
					c0,0.1,0.1,0.2,0.2,0.2c0.3,0.1,0.5,0.1,0.8,0.2c3.9,1.2,6.6,4.8,6.6,9C261.6,120.4,258.8,124,255,125.2z"/>
			</g>
			<path class="st11" d="M245,111.5c-0.9,1.4-1.5,3-1.5,4.8c0,4.8,3.9,8.7,8.7,8.7c4.8,0,8.7-3.9,8.7-8.7c0-1.8-0.5-3.5-1.5-4.8H245
				z"/>
			<g>
				<g class="st14">
					<g>
						<g>
							<g>
								<path class="st11" d="M254.3,96.4h-4c-0.4,0-0.8,0.3-0.8,0.8c0,0.3,0.2,0.7,0.6,0.7c0.1,0,0.1,0,0.2,0h4c0.1,0,0.1,0,0.2,0
									c0.3-0.1,0.6-0.4,0.6-0.7C255,96.7,254.7,96.4,254.3,96.4z M254.3,97.5h-4c-0.2,0-0.4-0.2-0.4-0.4c0-0.2,0.2-0.3,0.4-0.3h4
									c0.2,0,0.4,0.2,0.4,0.3C254.6,97.3,254.5,97.5,254.3,97.5z"/>
							</g>
						</g>
					</g>
				</g>
			</g>
		</g>
	</g>
</g>
</svg>
